<?xml version="1.0" encoding="UTF-8" standalone="no"?>
<svg
   width="126.99992mm"
   height="126.99992mm"
   viewBox="0 0 479.99971 479.99973"
   fill="none"
   version="1.1"
   id="svg87"
   sodipodi:docname="final-export-set-d1.svg"
   xml:space="preserve"
   inkscape:version="1.2.2 (1:1.2.2+202212051552+b0a8486541)"
   xmlns:inkscape="http://www.inkscape.org/namespaces/inkscape"
   xmlns:sodipodi="http://sodipodi.sourceforge.net/DTD/sodipodi-0.dtd"
   xmlns="http://www.w3.org/2000/svg"
   xmlns:svg="http://www.w3.org/2000/svg"><sodipodi:namedview
     id="namedview89"
     pagecolor="#ffffff"
     bordercolor="#000000"
     borderopacity="0.25"
     inkscape:showpageshadow="false"
     inkscape:pageopacity="0.0"
     inkscape:pagecheckerboard="0"
     inkscape:deskcolor="#d1d1d1"
     showgrid="false"
     borderlayer="false"
     inkscape:zoom="0.10091975"
     inkscape:cx="6837.1159"
     inkscape:cy="2928.0692"
     inkscape:window-width="3108"
     inkscape:window-height="1474"
     inkscape:window-x="439"
     inkscape:window-y="370"
     inkscape:window-maximized="0"
     inkscape:current-layer="svg87"
     inkscape:document-units="mm"
     showguides="false"><sodipodi:guide
       position="-352.33804,-637.08595"
       orientation="0,-1"
       id="guide8509"
       inkscape:locked="false" /><sodipodi:guide
       position="-352.33804,-637.08595"
       orientation="1,0"
       id="guide8511"
       inkscape:locked="false" /><sodipodi:guide
       position="-352.33804,-1576.5655"
       orientation="0,-1"
       id="guide8513"
       inkscape:locked="false" /><sodipodi:guide
       position="258.32261,-1576.5655"
       orientation="1,0"
       id="guide8515"
       inkscape:locked="false" /><sodipodi:guide
       position="451.36271,-1576.5655"
       orientation="1,0"
       id="guide8517"
       inkscape:locked="false" /><sodipodi:guide
       position="1062.0235,-1576.5655"
       orientation="1,0"
       id="guide8519"
       inkscape:locked="false" /><sodipodi:guide
       position="1255.0637,-1576.5655"
       orientation="1,0"
       id="guide8521"
       inkscape:locked="false" /><sodipodi:guide
       position="1865.7243,-1587.4455"
       orientation="1,0"
       id="guide8523"
       inkscape:locked="false" /><sodipodi:guide
       position="2058.7654,-597.69225"
       orientation="1,0"
       id="guide26110"
       inkscape:locked="false" /><sodipodi:guide
       position="2669.4248,-606.74005"
       orientation="1,0"
       id="guide26112"
       inkscape:locked="false" /><sodipodi:guide
       position="2862.466,-578.48035"
       orientation="1,0"
       id="guide26114"
       inkscape:locked="false" /><sodipodi:guide
       position="3473.126,-610.22965"
       orientation="1,0"
       id="guide26116"
       inkscape:locked="false" /><sodipodi:guide
       position="3666.1672,-606.44645"
       orientation="1,0"
       id="guide26118"
       inkscape:locked="false" /><sodipodi:guide
       position="4276.827,-591.32595"
       orientation="1,0"
       id="guide26120"
       inkscape:locked="false" /></sodipodi:namedview><defs
     id="defs85" /><g
     id="g9677"
     inkscape:label="system_icon_black"
     transform="matrix(6.3157859,0,0,6.3157859,-15208.98,1991.7406)"
     style="stroke-width:0.158333"><rect
       style="fill:#ffffff;fill-opacity:0;stroke-width:1.52001;stroke-linecap:round;stroke-linejoin:round;stroke-dashoffset:6.4;paint-order:fill markers stroke"
       id="rect9665"
       width="76"
       height="76"
       x="2408.0898"
       y="-315.3591" /><g
       id="g9671"
       style="stroke-width:0.158333"><path
         fill-rule="evenodd"
         clip-rule="evenodd"
         d="m 2430.5131,-260.4518 c -6.8971,-4.88629 -11.399,-12.93073 -11.399,-22.02661 0,-14.89839 12.0775,-26.97583 26.9759,-26.97583 14.8983,0 26.9757,12.07744 26.9757,26.97583 0,9.09588 -4.5018,17.14032 -11.3989,22.02674 l 1.6871,4.77939 c 8.7943,-5.67548 14.6166,-15.56089 14.6166,-26.80613 0,-17.60712 -14.2735,-31.88053 -31.8805,-31.88053 -17.6072,0 -31.8806,14.27341 -31.8806,31.88053 0,11.24524 5.8222,21.13065 14.6166,26.80613 z m 28.5681,-7.32515 c 4.0647,-3.59454 6.6276,-8.84869 6.6276,-14.70146 0,-10.83521 -8.7837,-19.61879 -19.6188,-19.61879 -10.8353,0 -19.6188,8.78358 -19.6188,19.61879 0,5.85277 2.5628,11.10692 6.6276,14.70146 l 1.812,-5.13387 c -2.2037,-2.57252 -3.5349,-5.91458 -3.5349,-9.56759 0,-8.12635 6.5878,-14.71409 14.7141,-14.71409 8.1263,0 14.7141,6.58774 14.7141,14.71409 0,3.65301 -1.3314,6.9952 -3.535,9.56771 z"
         fill="#bce5fb"
         id="path4-4-0-4-8-3-9-3-4-6-6"
         style="fill:#000000;fill-opacity:0.6;stroke-width:0.0249231"
         sodipodi:nodetypes="csssccssscccsssccssscc"
         clip-path="none" /><path
         id="path8383-0-9"
         clip-path="none"
         style="fill:#000000;fill-opacity:1;stroke-width:0.0412465"
         d="m 2446.0902,-289.8357 c -4.0631,0 -7.357,3.2939 -7.357,7.35705 0,2.07468 0.8587,3.94881 2.24,5.28619 l -11.5697,32.77701 c -0.11,0.31731 -0.1614,0.653 -0.1638,0.98896 -1e-4,1.69391 1.373,3.06714 3.0671,3.06699 1.2892,-0.004 2.4386,-0.81291 2.8763,-2.02559 v 0.002 l 3.2278,-9.14433 c 2.4582,0.60756 5.0289,0.92997 7.6746,0.92997 2.6456,0 5.2161,-0.32253 7.674,-0.92997 l 3.2165,9.11216 c 0.4283,1.22971 1.5928,2.0526 2.8949,2.05597 1.6936,-1.7e-4 3.0665,-1.3733 3.0664,-3.06697 -3e-4,-0.37693 -0.07,-0.75057 -0.2061,-1.10217 l -11.5292,-32.66321 c 1.3816,-1.33737 2.2406,-3.21199 2.2406,-5.28679 0,-4.06315 -3.2938,-7.35705 -7.3571,-7.35705 z m -6e-4,16.56693 5.621,15.9247 c -1.8092,0.4028 -3.6898,0.61543 -5.6204,0.61543 -1.9307,0 -3.8121,-0.2125 -5.6215,-0.61543 z" /></g></g></svg>
