<svg xmlns="http://www.w3.org/2000/svg" viewBox="0 0 83.66 113.21"><defs><style>.cls-1{fill:#72c483;}</style></defs><g id="Layer_2" data-name="Layer 2"><g id="Layer_1-2" data-name="Layer 1"><rect class="cls-1" x="12.72" y="43.26" width="7.33" height="26.69" rx="2.89"/><rect class="cls-1" x="25.45" y="30.85" width="7.33" height="51.52" rx="2.89"/><rect class="cls-1" x="63.61" y="43.26" width="7.33" height="26.69" rx="2.89" transform="translate(134.56 113.21) rotate(-180)"/><rect class="cls-1" x="76.34" y="48.05" width="7.33" height="17.11" rx="2.89" transform="translate(160 113.21) rotate(180)"/><rect class="cls-1" y="48.05" width="7.33" height="17.11" rx="2.89" transform="translate(7.33 113.21) rotate(-180)"/><rect class="cls-1" x="50.89" y="30.85" width="7.33" height="51.52" rx="2.89" transform="translate(109.11 113.21) rotate(-180)"/><rect class="cls-1" x="38.17" y="20.81" width="7.33" height="71.6" rx="2.89"/><path class="cls-1" d="M64.33,83.6a22.5,22.5,0,1,1-45,0V78.39a3.55,3.55,0,0,0-3.55-3.55h0a3.55,3.55,0,0,0-3.56,3.55V83.6a29.61,29.61,0,1,0,59.22,0V78.39a3.55,3.55,0,0,0-3.55-3.55h0a3.56,3.56,0,0,0-3.56,3.55ZM62.77,8.67A29.61,29.61,0,0,0,12.22,29.61v5.21a3.55,3.55,0,0,0,3.56,3.55h0a3.55,3.55,0,0,0,3.55-3.55V30C19.33,17.56,29.53,7,42,7.11a22.5,22.5,0,0,1,22.33,22.5v5.21a3.56,3.56,0,0,0,3.56,3.55h0a3.55,3.55,0,0,0,3.55-3.55V29.61A29.51,29.51,0,0,0,62.77,8.67Z"/></g></g></svg>